<?xml version="1.0" encoding="UTF-8"?>
<svg id="Layer_1" data-name="Layer 1" xmlns="http://www.w3.org/2000/svg" xmlns:xlink="http://www.w3.org/1999/xlink" viewBox="0 0 190.21 102.49">
  <defs>
    <style>
      .cls-1, .cls-2 {
        stroke-width: 0px;
      }

      .cls-1, .cls-3 {
        fill: #e62643;
      }

      .cls-4 {
        letter-spacing: -.04em;
      }

      .cls-2 {
        fill: none;
      }

      .cls-5 {
        clip-path: url(#clippath-2);
      }

      .cls-3 {
        font-family: Bungee-Regular, Bungee;
        font-size: 32px;
      }

      .cls-3, .cls-6 {
        isolation: isolate;
      }

      .cls-7 {
        letter-spacing: 0em;
      }
    </style>
    <clipPath id="clippath-2">
      <rect class="cls-2" x="28.04" y="33.07" width="46.37" height="55.96" transform="translate(-21 27.37) rotate(-25)"/>
    </clipPath>
  </defs>
  <g id="Group_259-2" data-name="Group 259">
    <g id="Group_115-2" data-name="Group 115">
      <g id="Group_23-2" data-name="Group 23">
        <path id="Path_13" data-name="Path 13" class="cls-1" d="M55.51,79.02l-.04.2-.16-.03.04-.21"/>
        <g id="Group_22-2" data-name="Group 22">
          <g class="cls-5">
            <g id="Group_21" data-name="Group 21">
              <path id="Path_14" data-name="Path 14" class="cls-1" d="M71.04,64.49c-.93,2.62-2.33,5.06-4.12,7.18l-10.03-3.57c6.29-4.25,7.95-12.79,3.7-19.08-4.25-6.29-12.79-7.95-19.08-3.7-6.29,4.25-7.95,12.79-3.7,19.08,3.37,4.99,9.6,7.21,15.36,5.47l-3.57,10.03c-12.81.22-23.37-9.98-23.59-22.79-.22-12.81,9.98-23.37,22.79-23.59,12.81-.22,23.37,9.98,23.59,22.79.05,2.78-.41,5.55-1.34,8.18"/>
              <path id="Path_15" data-name="Path 15" class="cls-1" d="M55.13,69.43c-4.69,2.19-6.72,7.76-4.53,12.45s7.76,6.72,12.45,4.53c4.69-2.19,6.72-7.76,4.53-12.45h0c-2.19-4.69-7.76-6.72-12.45-4.53M61.1,82.22c-2.38,1.11-5.2.08-6.31-2.3-1.11-2.38-.08-5.2,2.3-6.31,2.38-1.11,5.2-.08,6.31,2.3s.08,5.2-2.3,6.31h0"/>
              <path id="Path_16" data-name="Path 16" class="cls-1" d="M53.17,69.87c1.39-.37,2.7-1,3.86-1.86,1.07-.9,10.27,3.22,10.27,3.22-.93,1.32-2.14,2.42-3.54,3.23-1.35.47-3.79-3.05-3.79-3.05l-6.21,3.5s-.55,4.46-1.71,4.7c-.81.16-1.62.25-2.44.29l3.57-10.03Z"/>
            </g>
          </g>
        </g>
      </g>
      <circle id="Ellipse_16" data-name="Ellipse 16" class="cls-1" cx="49" cy="56.71" r="6.23"/>
    </g>
    <g id="uatro" class="cls-6">
      <text class="cls-3" transform="translate(76.06 73.21)"><tspan x="0" y="0">u</tspan><tspan class="cls-4" x="23.87" y="0">a</tspan><tspan x="45.95" y="0">t</tspan><tspan class="cls-7" x="66.94" y="0">r</tspan><tspan x="90.56" y="0">o</tspan></text>
    </g>
  </g>
</svg>